<?xml version="1.0" standalone="no"?>
<!DOCTYPE svg PUBLIC "-//W3C//DTD SVG 20010904//EN"
 "http://www.w3.org/TR/2001/REC-SVG-20010904/DTD/svg10.dtd">
<svg version="1.0" xmlns="http://www.w3.org/2000/svg"
 width="300.000000pt" height="119.000000pt" viewBox="0 0 300.000000 119.000000"
 preserveAspectRatio="xMidYMid meet">
<metadata>
Created by potrace 1.10, written by Peter Selinger 2001-2011
</metadata>
<g transform="translate(0.000000,119.000000) scale(0.100000,-0.100000)"
fill="#000000" stroke="none">
<path d="M1425 879 c-71 -110 -135 -204 -141 -209 -7 -7 -23 17 -49 78 -20 48
-39 89 -41 91 -2 2 -14 -9 -26 -25 -103 -131 -323 -374 -339 -374 -14 0 -19
-7 -19 -26 0 -21 4 -24 20 -19 19 6 20 2 20 -64 0 -64 -2 -71 -20 -71 -14 0
-20 -7 -20 -23 0 -23 3 -24 65 -23 61 0 65 2 65 23 0 16 -6 23 -20 23 -18 0
-20 7 -20 71 0 66 1 70 20 64 16 -5 20 -2 20 19 0 26 -13 32 -44 20 -8 -3 -12
-12 -10 -19 3 -7 1 -16 -4 -19 -10 -6 -26 23 -18 31 2 3 71 39 153 82 l148 77
12 100 c7 54 14 105 15 113 2 8 18 -23 37 -68 18 -45 37 -84 41 -86 5 -3 53
23 108 57 l100 62 37 136 c39 138 54 179 55 150 0 -8 29 -80 64 -160 l63 -144
-94 -134 c-52 -74 -92 -136 -90 -139 3 -2 38 18 78 45 41 26 102 66 136 87
l62 40 3 100 3 99 63 -98 c35 -54 65 -96 68 -93 6 5 -132 217 -141 217 -3 0
-21 -25 -41 -55 -20 -30 -38 -55 -39 -55 -1 0 -33 72 -70 160 -37 88 -71 160
-74 159 -3 0 -64 -90 -136 -200z m59 4 c-9 -32 -17 -67 -20 -78 -5 -18 -101
-91 -109 -83 -3 3 136 218 141 218 1 0 -4 -26 -12 -57z m279 -162 c0 -33 -1
-62 -4 -64 -2 -2 -37 -25 -77 -51 -68 -45 -100 -56 -70 -25 7 8 19 26 27 41 8
15 21 36 30 45 9 10 32 42 51 70 19 29 36 50 38 48 2 -2 4 -31 5 -64z m-610
-23 c-7 -93 -6 -92 -105 -144 -116 -61 -112 -59 -102 -42 10 17 78 99 109 133
11 12 35 40 54 63 18 23 36 42 40 42 4 0 6 -24 4 -52z m-268 -448 c3 -5 -1
-10 -10 -10 -9 0 -13 5 -10 10 3 6 8 10 10 10 2 0 7 -4 10 -10z"/>
<path d="M1935 658 c-33 -56 -62 -106 -64 -111 -2 -5 29 13 69 39 l71 48 -6
50 c-8 59 -5 58 31 -10 14 -27 48 -91 76 -141 l49 -93 -25 0 -26 0 0 -116 0
-115 28 3 c24 3 27 7 24 36 -3 29 -1 32 22 32 18 0 32 -10 48 -35 17 -26 30
-35 51 -35 33 0 33 3 1 46 -22 28 -24 35 -11 40 8 3 20 18 27 34 22 54 -26
110 -95 110 -29 0 -34 8 -115 160 -47 88 -87 160 -90 159 -3 0 -32 -46 -65
-101z m31 -16 c-18 -16 -18 -16 -6 6 6 13 14 21 18 18 3 -4 -2 -14 -12 -24z
m272 -258 c18 -5 15 -51 -4 -58 -9 -3 -29 -6 -45 -6 -27 0 -29 2 -29 40 0 39
0 39 33 34 17 -3 38 -7 45 -10z m-85 -89 c-7 -21 -13 -19 -13 6 0 11 4 18 10
14 5 -3 7 -12 3 -20z"/>
<path d="M562 328 l3 -113 45 -1 c143 -3 215 70 164 167 -20 40 -68 59 -149
59 l-66 0 3 -112z m158 46 c21 -22 21 -60 0 -87 -17 -21 -30 -27 -61 -27 l-39
0 0 68 0 69 45 -7 c26 -4 50 -11 55 -16z"/>
<path d="M993 425 c-16 -11 -23 -26 -23 -50 0 -38 22 -58 75 -71 43 -10 58
-23 44 -40 -15 -18 -47 -18 -81 0 -26 14 -29 13 -39 -6 -13 -24 -2 -34 50 -44
81 -16 149 33 123 90 -8 19 -25 29 -67 41 -42 13 -55 21 -53 33 4 20 49 28 77
12 17 -8 22 -7 31 11 16 28 9 32 -58 37 -41 2 -63 -1 -79 -13z"/>
<path d="M1204 406 c-28 -28 -34 -41 -34 -78 0 -24 7 -54 16 -66 34 -49 109
-66 164 -37 34 17 37 27 15 45 -12 10 -18 10 -29 1 -8 -7 -32 -11 -52 -9 -72
6 -86 92 -21 128 25 14 30 13 55 -1 25 -14 31 -14 48 -2 19 14 18 15 -5 34
-16 13 -39 19 -73 19 -44 0 -54 -4 -84 -34z"/>
<path d="M1434 406 c-28 -28 -34 -41 -34 -78 0 -50 18 -82 60 -103 111 -58
224 57 160 163 -23 37 -54 52 -112 52 -32 0 -47 -7 -74 -34z m123 -21 c45 -31
36 -105 -14 -122 -75 -27 -129 67 -67 116 32 25 52 26 81 6z"/>
<path d="M1676 358 c20 -46 42 -98 49 -115 10 -24 20 -33 38 -33 21 0 30 14
74 115 l51 115 -28 0 c-25 0 -31 -7 -61 -80 -18 -44 -33 -79 -35 -77 -1 1 -16
37 -34 80 -29 71 -34 77 -61 77 l-28 0 35 -82z m102 -100 c-4 -12 -22 -12 -26
0 -1 5 4 9 13 9 9 0 14 -4 13 -9z"/>
<path d="M1923 425 c-27 -19 -34 -49 -17 -73 12 -17 11 -22 -1 -32 -21 -18
-19 -64 5 -85 34 -31 170 -29 170 2 -1 26 -17 32 -53 21 -41 -13 -87 1 -87 26
0 18 22 26 69 26 30 0 37 4 37 20 0 17 -7 20 -43 20 -31 0 -45 5 -50 16 -9 24
17 36 65 30 33 -5 44 -2 49 10 3 9 0 20 -8 25 -23 14 -113 10 -136 -6z"/>
<path d="M2342 374 c3 -55 8 -70 27 -85 45 -37 131 -16 131 31 0 11 2 12 13 1
10 -10 9 -14 -5 -22 -10 -6 -18 -19 -18 -29 0 -42 -68 -59 -108 -27 -10 8 -16
7 -23 -4 -15 -23 -10 -35 18 -45 17 -6 -313 -8 -905 -6 -632 2 -932 -1 -932
-8 0 -7 329 -10 1015 -10 751 0 1015 3 1015 11 0 8 -14 10 -45 6 l-45 -7 30
28 c28 26 29 31 32 130 l3 102 -27 0 c-27 0 -28 -2 -28 -49 0 -53 -17 -81 -49
-81 -30 0 -46 29 -44 81 1 48 1 49 -29 49 l-30 0 4 -66z"/>
</g>
</svg>
