<?xml version="1.0" standalone="no"?>
<!DOCTYPE svg PUBLIC "-//W3C//DTD SVG 20010904//EN"
 "http://www.w3.org/TR/2001/REC-SVG-20010904/DTD/svg10.dtd">
<svg version="1.0" xmlns="http://www.w3.org/2000/svg"
 width="300.000000pt" height="300.000000pt" viewBox="0 0 300.000000 300.000000"
 preserveAspectRatio="xMidYMid meet">
<metadata>
Created by potrace 1.10, written by Peter Selinger 2001-2011
</metadata>
<g transform="translate(0.000000,300.000000) scale(0.100000,-0.100000)"
fill="#000000" stroke="none">
<path d="M1414 1880 c-76 -115 -141 -210 -144 -210 -3 0 -23 41 -44 91 -31 72
-42 88 -50 77 -6 -8 -83 -99 -170 -201 -98 -115 -167 -187 -178 -187 -13 0
-18 -8 -18 -25 0 -18 5 -25 20 -25 18 0 20 -7 20 -65 0 -58 -2 -65 -20 -65
-15 0 -20 -7 -20 -25 0 -24 2 -25 65 -25 63 0 65 1 65 26 0 21 -4 25 -20 21
-19 -5 -20 0 -20 68 0 68 1 73 20 68 16 -4 20 0 20 21 0 25 -2 27 -37 21 -28
-5 0 14 107 70 80 43 146 78 147 79 1 1 7 50 14 109 7 59 15 107 18 107 3 0
21 -38 40 -85 34 -84 35 -85 57 -71 12 9 58 38 103 67 45 28 81 52 81 53 0 6
80 279 83 282 1 2 32 -66 68 -150 l66 -153 -76 -110 c-42 -60 -84 -120 -93
-133 -10 -13 -16 -26 -13 -28 2 -2 65 35 139 83 l135 87 3 100 3 100 58 -91
c55 -85 95 -133 66 -80 -16 31 -129 199 -133 199 -2 0 -20 -25 -40 -56 -21
-31 -39 -54 -41 -52 -2 1 -33 73 -70 158 -36 85 -67 156 -69 157 -2 2 -66 -91
-142 -207z m36 -39 c0 -24 -45 -79 -56 -69 -4 5 0 16 9 26 10 10 17 22 17 26
0 6 22 35 28 36 1 0 2 -9 2 -19z m292 -132 c-4 -34 -10 -44 -43 -66 -21 -14
-43 -23 -49 -21 -12 4 70 128 85 128 6 0 9 -17 7 -41z m-607 -26 c-12 -66 -15
-71 -78 -102 -34 -17 -66 -31 -71 -31 -4 0 6 17 22 38 43 54 117 132 126 132
4 0 4 -17 1 -37z"/>
<path d="M1922 1658 c-34 -55 -61 -102 -59 -104 1 -2 32 17 69 41 l66 45 -6
45 c-2 25 -2 45 1 45 4 0 157 -276 157 -285 0 -1 -11 0 -25 3 l-25 4 0 -116 0
-116 25 0 c22 0 25 4 25 35 0 30 3 35 24 35 17 0 31 -11 46 -35 17 -28 28 -35
52 -35 l30 0 -27 36 -27 35 21 20 c22 21 28 68 11 99 -10 20 -59 40 -96 40
-18 0 -29 11 -45 43 -51 101 -143 267 -148 267 -3 0 -34 -46 -69 -102z m313
-293 c0 -28 -3 -30 -42 -33 l-43 -3 0 36 0 36 43 -3 c39 -3 42 -5 42 -33z"/>
<path d="M560 1335 l0 -118 76 5 c87 6 121 25 142 80 12 30 11 40 -1 71 -22
51 -56 69 -143 75 l-74 5 0 -118z m152 48 c22 -20 23 -70 1 -95 -11 -12 -30
-18 -60 -18 l-43 0 0 65 0 65 42 0 c24 0 49 -7 60 -17z"/>
<path d="M985 1425 c-47 -46 -27 -88 51 -111 41 -12 54 -20 52 -32 -3 -17 -38
-21 -98 -11 -35 6 -40 -28 -5 -41 74 -28 155 4 155 60 0 34 -24 53 -87 70 -26
6 -43 17 -43 25 0 20 46 30 77 16 21 -10 28 -9 34 1 22 33 -1 48 -74 48 -27 0
-45 -7 -62 -25z"/>
<path d="M1214 1431 c-67 -41 -67 -150 -1 -192 38 -24 119 -21 145 5 15 15 15
17 0 32 -14 15 -18 15 -41 -1 -45 -29 -97 3 -97 60 0 57 52 89 97 60 23 -16
27 -16 41 -1 15 15 15 17 0 32 -26 26 -107 29 -144 5z"/>
<path d="M1448 1434 c-103 -55 -57 -214 62 -214 89 0 143 79 110 164 -21 56
-113 83 -172 50z m115 -56 c22 -26 22 -60 -1 -89 -26 -31 -78 -31 -104 0 -59
74 43 161 105 89z"/>
<path d="M1680 1338 c44 -102 51 -113 75 -113 23 0 30 11 74 113 l49 112 -27
0 c-25 0 -31 -7 -56 -72 -16 -40 -31 -76 -35 -81 -3 -4 -21 29 -39 73 -30 74
-35 80 -61 80 l-28 0 48 -112z"/>
<path d="M1922 1438 c-28 -14 -39 -54 -22 -81 10 -17 9 -22 -4 -29 -16 -9 -22
-54 -8 -74 21 -32 103 -45 156 -24 27 10 31 17 18 37 -6 10 -16 10 -44 1 -47
-14 -88 -4 -88 22 0 22 35 35 75 28 21 -4 25 -1 25 18 0 22 -4 24 -45 24 -38
0 -45 3 -45 20 0 25 43 37 81 23 25 -10 29 -8 35 9 4 13 1 24 -7 29 -19 12
-99 10 -127 -3z"/>
<path d="M2330 1391 c0 -79 24 -111 84 -111 23 0 47 5 54 12 9 9 12 7 12 -10
0 -12 -11 -29 -25 -38 -23 -15 -29 -15 -65 -1 -37 14 -40 14 -46 -5 -6 -21 -7
-21 18 -34 10 -5 -354 -9 -903 -9 -505 0 -919 -3 -919 -8 0 -13 2014 -9 2019
4 2 8 -10 10 -45 4 l-48 -7 32 30 c32 30 32 30 32 131 l0 101 -25 0 c-23 0
-25 -3 -25 -49 0 -56 -17 -81 -55 -81 -31 0 -45 27 -45 84 0 42 -2 46 -25 46
-24 0 -25 -3 -25 -59z"/>
</g>
</svg>
